# Blender v2.79 (sub 0) OBJ File: 'ManaCrystalModel.blend'
# www.blender.org
mtllib ManaCrystalModel.mtl
o Icosphere
v 0.276388 0.447220 0.850649
v -0.723607 0.447220 0.525725
v -0.723607 0.447220 -0.525725
v 0.276388 0.447220 -0.850649
v 0.894426 0.447216 0.000000
v 0.000000 1.000000 0.000000
v 0.951058 0.000000 0.309013
v 0.951058 0.000000 -0.309013
v 0.000000 0.000000 1.000000
v 0.587786 0.000000 0.809017
v -0.951058 0.000000 0.309013
v -0.587786 0.000000 0.809017
v -0.587786 0.000000 -0.809017
v -0.951058 0.000000 -0.309013
v 0.587786 0.000000 -0.809017
v 0.000000 0.000000 -1.000000
v 0.688189 0.525736 0.499997
v -0.262869 0.525738 0.809012
v -0.850648 0.525736 0.000000
v -0.262869 0.525738 -0.809012
v 0.688189 0.525736 -0.499997
v 0.162456 0.850654 0.499995
v 0.525730 0.850652 0.000000
v -0.425323 0.850654 0.309011
v -0.425323 0.850654 -0.309011
v 0.162456 0.850654 -0.499995
vt 0.093030 0.362570
vt 0.106909 0.243076
vt 0.188927 0.329872
vt 0.271193 0.515906
vt 0.159174 0.463701
vt 0.269085 0.411734
vt 0.469479 0.388532
vt 0.390302 0.478882
vt 0.372338 0.359739
vt 0.411874 0.163547
vt 0.471841 0.267760
vt 0.354297 0.246596
vt 0.180591 0.147744
vt 0.298233 0.123496
vt 0.241480 0.228396
vt 0.285225 0.315268
vt 0.260466 0.023593
vt 0.426195 0.063510
vt 0.555092 0.200612
vt 0.569236 0.370805
vt 0.484186 0.541149
vt 0.321664 0.611856
vt 0.130813 0.569510
vt 0.021905 0.434728
vt 0.000077 0.247793
vt 0.090045 0.102869
vt 0.462100 0.995134
vt 0.335902 0.999923
vt 0.230946 0.929634
vt 0.187267 0.811082
vt 0.222163 0.689653
vt 0.551856 0.677097
vt 0.595826 0.795556
vt 0.561383 0.917082
vn 0.4089 0.6617 0.6284
vn -0.4713 0.6617 0.5831
vn -0.7002 0.6617 -0.2680
vn 0.0385 0.6617 -0.7488
vn 0.7240 0.6617 -0.1947
vn 0.2680 0.9435 -0.1947
vn 0.4911 0.7947 -0.3568
vn 0.4089 0.6617 -0.6284
vn -0.1024 0.9435 -0.3151
vn -0.1876 0.7947 -0.5773
vn -0.4713 0.6617 -0.5831
vn -0.3313 0.9435 0.0000
vn -0.6071 0.7947 0.0000
vn -0.7002 0.6617 0.2680
vn -0.1024 0.9435 0.3151
vn -0.1876 0.7947 0.5773
vn 0.0385 0.6617 0.7488
vn 0.2680 0.9435 0.1947
vn 0.4911 0.7947 0.3568
vn 0.7240 0.6617 0.1947
vn 0.8897 0.3304 -0.3151
vn 0.7947 0.1876 -0.5773
vn 0.5746 0.3304 -0.7488
vn -0.0247 0.3304 -0.9435
vn -0.3035 0.1876 -0.9342
vn -0.5346 0.3304 -0.7779
vn -0.9050 0.3304 -0.2680
vn -0.9822 0.1876 0.0000
vn -0.9050 0.3304 0.2680
vn -0.5346 0.3304 0.7779
vn -0.3035 0.1876 0.9342
vn -0.0247 0.3304 0.9435
vn 0.5746 0.3304 0.7488
vn 0.7947 0.1876 0.5773
vn 0.8897 0.3304 0.3151
vn 0.3066 0.1256 -0.9435
vn -0.8026 0.1256 -0.5831
vn -0.8026 0.1256 0.5831
vn 0.3066 0.1256 0.9435
vn 0.9921 0.1256 0.0000
vn 0.0000 -1.0000 0.0000
usemtl None
s off
f 1/1/1 17/2/1 22/3/1
f 2/4/2 18/5/2 24/6/2
f 3/7/3 19/8/3 25/9/3
f 4/10/4 20/11/4 26/12/4
f 5/13/5 21/14/5 23/15/5
f 23/15/6 26/12/6 6/16/6
f 23/15/7 21/14/7 26/12/7
f 21/14/8 4/10/8 26/12/8
f 26/12/9 25/9/9 6/16/9
f 26/12/10 20/11/10 25/9/10
f 20/11/11 3/7/11 25/9/11
f 25/9/12 24/6/12 6/16/12
f 25/9/13 19/8/13 24/6/13
f 19/8/14 2/4/14 24/6/14
f 24/6/15 22/3/15 6/16/15
f 24/6/16 18/5/16 22/3/16
f 18/5/17 1/1/17 22/3/17
f 22/3/18 23/15/18 6/16/18
f 22/3/19 17/2/19 23/15/19
f 17/2/20 5/13/20 23/15/20
f 8/17/21 21/14/21 5/13/21
f 8/17/22 15/18/22 21/14/22
f 15/18/23 4/10/23 21/14/23
f 16/19/24 20/11/24 4/10/24
f 16/19/25 13/20/25 20/11/25
f 13/20/26 3/7/26 20/11/26
f 14/21/27 19/8/27 3/7/27
f 14/21/28 11/22/28 19/8/28
f 11/22/29 2/4/29 19/8/29
f 12/23/30 18/5/30 2/4/30
f 12/23/31 9/24/31 18/5/31
f 9/24/32 1/1/32 18/5/32
f 10/25/33 17/2/33 1/1/33
f 10/25/34 7/26/34 17/2/34
f 7/26/35 5/13/35 17/2/35
f 15/18/36 16/19/36 4/10/36
f 13/20/37 14/21/37 3/7/37
f 11/22/38 12/23/38 2/4/38
f 9/24/39 10/25/39 1/1/39
f 7/26/40 8/17/40 5/13/40
f 8/27/41 7/28/41 10/29/41 9/30/41 12/31/41 11/22/41 14/21/41 13/32/41 16/33/41 15/34/41
